<?xml version="1.0" encoding="UTF-8"?>
<svg version="1.1" xmlns="http://www.w3.org/2000/svg" width="500" height="500">
<path d="M0 0 C165 0 330 0 500 0 C500 165 500 330 500 500 C335 500 170 500 0 500 C0 335 0 170 0 0 Z " fill="#FEFEFE" transform="translate(0,0)"/>
<path d="M0 0 C4.04937772 1.42478105 5.10482265 2.58628144 7.375 6.1875 C7.86719131 9.58263111 7.86719131 9.58263111 7.85601807 13.54634094 C7.85944214 14.27572876 7.86286621 15.00511658 7.86639404 15.75660706 C7.87300375 18.20312861 7.85094236 20.64854962 7.82910156 23.0949707 C7.82787601 24.87777007 7.82841056 26.66057138 7.83056259 28.44336987 C7.83146548 33.21682421 7.80828588 37.98987731 7.78012085 42.763237 C7.75733756 47.24268354 7.75626821 51.72203258 7.75341797 56.20153809 C7.73243034 69.30107852 7.67658569 82.40054433 7.625 95.5 C7.5425 124.766875 7.46 154.03375 7.375 184.1875 C99.445 184.1875 191.515 184.1875 286.375 184.1875 C286.17698982 125.50342578 286.17698982 125.50342578 285.92456055 66.81958008 C285.90197754 55.4798584 285.90197754 55.4798584 285.89778137 50.17436218 C285.89311548 46.46193051 285.87434871 42.74985489 285.84712219 39.03752136 C285.81286713 34.30426317 285.80253634 29.5715239 285.80963862 24.83815324 C285.80815317 23.09974592 285.79821345 21.36132075 285.77892435 19.62301981 C285.75408873 17.27612282 285.76003191 14.93124723 285.77372742 12.58430481 C285.76911845 11.26890622 285.76450949 9.95350763 285.75976086 8.59824848 C286.53268583 4.31332495 287.98984868 2.84046804 291.375 0.1875 C294.375 -0.4375 294.375 -0.4375 297.375 0.1875 C300.87089126 2.89363035 302.23178111 4.36739516 303.00141239 8.77448368 C303.02749253 10.18706675 303.02622266 11.60031868 303.00318909 13.01295471 C303.01028347 13.79436307 303.01737786 14.57577144 303.02468723 15.38085884 C303.04227241 17.99602592 303.02416085 20.60970774 303.00610352 23.22485352 C303.01124211 25.10085731 303.01852294 26.97685628 303.02778625 28.85284424 C303.04631476 33.94581105 303.03335296 39.03825497 303.01369596 44.13120008 C302.9973226 49.4584803 303.00612041 54.78572707 303.01121521 60.11302185 C303.01573724 69.05842452 302.99985852 78.00361816 302.97192383 86.94897461 C302.93986171 97.29591421 302.93989113 107.64247697 302.9571386 117.98944336 C302.97299258 127.93831716 302.96627801 137.8870526 302.94920158 147.83592033 C302.94232308 152.07231255 302.94337171 156.30859413 302.95074654 160.54498482 C302.95839788 165.53144442 302.94632087 170.51747421 302.91889763 175.50386047 C302.91200099 177.33564922 302.91192947 179.16747802 302.91911316 180.99926567 C302.92777875 183.49633584 302.91190224 185.99207065 302.8896637 188.48902893 C302.89790446 189.21713809 302.90614523 189.94524725 302.91463572 190.69542032 C302.86150052 193.91887325 302.67996624 195.79689024 300.66918272 198.37236112 C297.91081979 200.55475564 296.64094069 200.6884001 293.16191864 200.69086456 C291.57046925 200.70651105 291.57046925 200.70651105 289.94686937 200.72247362 C288.78229188 200.71355073 287.6177144 200.70462785 286.41784668 200.69543457 C285.17993488 200.70167453 283.94202308 200.7079145 282.6665988 200.71434355 C279.22837376 200.72755672 275.79102026 200.72277664 272.35284781 200.71039867 C268.64589137 200.70136353 264.93901213 200.71531024 261.23207092 200.72631836 C253.96940416 200.74412468 246.70690254 200.74025425 239.44422925 200.7286678 C233.54283803 200.71964203 227.64149318 200.71840575 221.74009705 200.72276306 C220.48124064 200.72368246 220.48124064 200.72368246 219.19695279 200.72462043 C217.49217084 200.72589931 215.7873889 200.72719616 214.08260697 200.7285108 C198.08887187 200.73992278 182.0952284 200.72679321 166.10150832 200.70530933 C152.37182553 200.68743778 138.64227801 200.69054171 124.91259766 200.70898438 C108.97692845 200.73038019 93.04133961 200.73882409 77.10565805 200.72653532 C75.40707303 200.7252611 73.708488 200.72400361 72.00990295 200.72276306 C71.17412034 200.72214596 70.33833773 200.72152886 69.47722837 200.72089306 C63.58147393 200.71743628 57.68577037 200.72327554 51.7900238 200.73268127 C44.60711953 200.74388834 37.42439016 200.74088857 30.24150598 200.7195583 C26.57515228 200.70903031 22.9090904 200.70495545 19.24273872 200.71815491 C15.27237779 200.73223289 11.30249694 200.71544795 7.33215332 200.69543457 C6.16757583 200.70435746 5.00299834 200.71328034 3.80313063 200.72247362 C2.74216437 200.71204263 1.68119811 200.70161164 0.58808136 200.69086456 C-0.32867355 200.69021515 -1.24542846 200.68956574 -2.18996382 200.68889666 C-5.38499974 200.03100897 -6.57203429 198.66231359 -8.625 196.1875 C-10.12005632 193.19738736 -9.78026616 190.1300915 -9.78562927 186.85015869 C-9.79071709 186.08497539 -9.79580491 185.31979209 -9.80104691 184.53142142 C-9.81681059 181.95356666 -9.82530674 179.37574001 -9.83374023 176.79785156 C-9.84327551 174.95509664 -9.85316652 173.11234353 -9.86338806 171.26959229 C-9.89480978 165.20579157 -9.91504338 159.14197697 -9.93359375 153.078125 C-9.93689107 152.04720828 -9.94018839 151.01629156 -9.94358563 149.95413494 C-9.97436702 140.23531645 -10.00108054 130.51649493 -10.01800442 120.79764175 C-10.03992039 108.35683423 -10.08190699 95.91645782 -10.15144199 83.47582269 C-10.19865038 74.73351276 -10.22293374 65.99131928 -10.2302013 57.24888587 C-10.23516223 52.02491033 -10.25028511 46.80142037 -10.2899456 41.57758331 C-10.32676953 36.66251523 -10.33523558 31.74821088 -10.32193947 26.8330307 C-10.32199349 25.02945401 -10.33231855 23.22584385 -10.3536911 21.4223938 C-10.3813312 18.95826418 -10.37188571 16.496928 -10.35325623 14.03277588 C-10.37005115 13.32011889 -10.38684608 12.6074619 -10.40414995 11.87320924 C-10.32810874 7.84452123 -9.49766132 5.58250922 -6.80604649 2.70888901 C-4.25251167 0.27764104 -3.77569509 0.19529457 0 0 Z " fill="#FDBE5F" transform="translate(106.625,187.8125)"/>
<path d="M0 0 C3.60503629 1.2109941 6.39246949 3.00221563 9.3984375 5.265625 C9.99930176 5.70600098 10.60016602 6.14637695 11.21923828 6.60009766 C16.5879501 10.58208792 21.75891343 14.80466558 26.91723633 19.0534668 C31.54921127 22.85844249 36.27043668 26.50883056 41.0859375 30.078125 C47.0233929 34.4803189 52.83174639 39.01312504 58.58569336 43.65209961 C64.65532447 48.54132419 70.83020415 53.28457653 77.0234375 58.015625 C85.1644988 64.25883379 93.27521742 70.53953728 101.36987305 76.84277344 C105.74404461 80.24742404 110.1266112 83.6402836 114.5234375 87.015625 C121.93956879 92.71032054 129.31542334 98.45650092 136.69287109 104.20117188 C140.46861014 107.14075836 144.24607057 110.07813084 148.0234375 113.015625 C152.58293134 116.56134528 157.1419859 120.10762396 161.69921875 123.65625 C176.45682661 135.22352792 176.45682661 135.22352792 191.41796875 146.5234375 C191.97049316 146.93166748 192.52301758 147.33989746 193.09228516 147.76049805 C194.61162862 148.87995398 196.13573181 149.99294177 197.66015625 151.10546875 C200.0234375 153.015625 200.0234375 153.015625 202.0234375 156.015625 C201.94777107 160.17727852 201.61906995 162.31488094 198.8984375 165.515625 C194.98723314 167.55625336 193.29132133 167.10861964 189.0234375 166.015625 C186.00726644 164.20071566 183.35387044 162.01035015 180.6484375 159.765625 C179.05277745 158.48220945 177.45640608 157.19967785 175.859375 155.91796875 C175.05467773 155.26554199 174.24998047 154.61311523 173.42089844 153.94091797 C169.7582473 150.99960769 166.01716504 148.1649842 162.2734375 145.328125 C156.60976311 141.01192748 150.98384563 136.65216731 145.39257812 132.24267578 C138.4095373 126.7365125 131.38250602 121.28703996 124.35986328 115.83154297 C122.01626697 114.01005192 119.67394323 112.18693723 117.33203125 110.36328125 C109.71524059 104.432791 102.08688113 98.51887465 94.4296875 92.640625 C90.28102361 89.44934509 86.15313503 86.23138364 82.0234375 83.015625 C74.1847461 76.91240399 66.3214016 70.84277226 58.43652344 64.79931641 C51.67181024 59.61385775 44.94058641 54.38966049 38.24536133 49.11474609 C33.3952831 45.29761068 28.50881058 41.52979739 23.60546875 37.78125 C20.8314888 35.65147201 18.0871667 33.48641626 15.34765625 31.3125 C14.5390918 30.67417236 13.73052734 30.03584473 12.89746094 29.37817383 C11.29882515 28.11512341 9.70426697 26.84689115 8.11425781 25.57299805 C7.01549316 24.70735229 7.01549316 24.70735229 5.89453125 23.82421875 C5.24411865 23.30657959 4.59370605 22.78894043 3.92358398 22.25561523 C1.87915966 20.92147273 0.45417306 20.25875942 -1.9765625 20.015625 C-4.38552026 21.63792184 -6.47513895 23.25626725 -8.6640625 25.140625 C-10.00886034 26.25838552 -11.35527591 27.37420198 -12.703125 28.48828125 C-13.4034082 29.07109863 -14.10369141 29.65391602 -14.82519531 30.25439453 C-18.32658435 33.120829 -21.9311478 35.84784449 -25.5390625 38.578125 C-29.7487757 41.76870014 -33.94300686 44.96965213 -38.05859375 48.28125 C-38.69917725 48.79486084 -39.33976074 49.30847168 -39.99975586 49.83764648 C-41.2047837 50.80754694 -42.40510096 51.78333907 -43.59985352 52.76586914 C-47.64511935 56.015625 -47.64511935 56.015625 -50.9765625 56.015625 C-51.24049805 56.62140381 -51.50443359 57.22718262 -51.77636719 57.85131836 C-53.04537596 60.139716 -54.07897391 61.12889783 -56.1796875 62.64453125 C-56.82276855 63.11616699 -57.46584961 63.58780273 -58.12841797 64.07373047 C-58.82080566 64.57018066 -59.51319336 65.06663086 -60.2265625 65.578125 C-61.69370414 66.65359076 -63.15983278 67.73043967 -64.625 68.80859375 C-65.36073242 69.34790527 -66.09646484 69.8872168 -66.85449219 70.44287109 C-69.90046614 72.70036812 -72.88054607 75.03580645 -75.8515625 77.390625 C-76.99987638 78.2983335 -78.14831692 79.20588178 -79.296875 80.11328125 C-79.88758789 80.58008301 -80.47830078 81.04688477 -81.08691406 81.52783203 C-84.62110882 84.31043964 -88.17452724 87.06835252 -91.7265625 89.828125 C-92.48074463 90.41416504 -93.23492676 91.00020508 -94.01196289 91.60400391 C-95.55463301 92.80264175 -97.09735807 94.00120889 -98.64013672 95.19970703 C-100.98373303 97.02119808 -103.32605677 98.84431277 -105.66796875 100.66796875 C-113.28475941 106.598459 -120.91311887 112.51237535 -128.5703125 118.390625 C-132.71897618 121.58190475 -136.84688731 124.799838 -140.9765625 128.015625 C-147.15514694 132.82690207 -153.3490901 137.61657655 -159.5625 142.3828125 C-162.96702129 145.0012026 -166.34975334 147.64720061 -169.73339844 150.29248047 C-172.79050319 152.67828284 -175.8565698 155.05236371 -178.92480469 157.42382812 C-180.74423396 158.83537963 -182.55246286 160.26000642 -184.359375 161.6875 C-185.30554688 162.41453125 -186.25171875 163.1415625 -187.2265625 163.890625 C-188.01546875 164.50679687 -188.804375 165.12296875 -189.6171875 165.7578125 C-192.59386789 167.34471827 -194.64772282 167.31700143 -197.9765625 167.015625 C-200.2890625 166.015625 -200.2890625 166.015625 -201.9765625 164.015625 C-202.88848384 161.29751106 -203.39359245 158.86185441 -202.9765625 156.015625 C-200.06945894 151.4942755 -196.14049966 148.67365519 -191.8515625 145.578125 C-190.4077678 144.51579781 -188.96510142 143.45193579 -187.5234375 142.38671875 C-186.77513672 141.83483887 -186.02683594 141.28295898 -185.25585938 140.71435547 C-181.49494967 137.91139812 -177.79777861 135.02806671 -174.1015625 132.140625 C-173.35245605 131.55611572 -172.60334961 130.97160645 -171.83154297 130.36938477 C-170.30697301 129.1792818 -168.78272221 127.98876987 -167.25878906 126.79785156 C-163.50260176 123.86458591 -159.73926014 120.9405313 -155.9765625 118.015625 C-154.47652744 116.84900342 -152.97652745 115.68233673 -151.4765625 114.515625 C-148.4765625 112.18229167 -145.4765625 109.84895833 -142.4765625 107.515625 C-141.73398193 106.93804443 -140.99140137 106.36046387 -140.22631836 105.76538086 C-138.72720228 104.59943784 -137.22801614 103.43358488 -135.72875977 102.26782227 C-131.96465447 99.34082063 -128.20180242 96.41223448 -124.44140625 93.48046875 C-117.14392822 87.79346863 -109.83255093 82.12680366 -102.4765625 76.515625 C-90.55477371 67.42106665 -78.73569839 58.19549199 -66.95458984 48.91967773 C-60.46951111 43.81995346 -53.9204873 38.80406159 -47.37207031 33.78613281 C-41.21226698 29.06424102 -35.07360296 24.31838291 -28.9765625 19.515625 C-24.32316189 15.85257181 -19.66175024 12.20046923 -14.9765625 8.578125 C-13.460625 7.40443359 -13.460625 7.40443359 -11.9140625 6.20703125 C-10.9446875 5.48386719 -9.9753125 4.76070312 -8.9765625 4.015625 C-7.9865625 3.24089844 -6.9965625 2.46617188 -5.9765625 1.66796875 C-2.9765625 0.015625 -2.9765625 0.015625 0 0 Z " fill="#FEBD5B" transform="translate(253.9765625,11.984375)"/>
<path d="M0 0 C6.31303392 -0.05121737 12.62601316 -0.08594785 18.93920898 -0.10986328 C21.08148196 -0.11984606 23.22374157 -0.13343702 25.3659668 -0.15087891 C60.81963158 -0.43206029 60.81963158 -0.43206029 70.87890625 8.70703125 C76.25828852 14.65675767 77.36205229 19.97266218 77.375 27.8125 C77.39949219 28.58142578 77.42398438 29.35035156 77.44921875 30.14257812 C77.48875626 37.95123703 74.45057568 44.39801944 69 50 C57.50607961 58.95456589 43.79221549 58.85304148 29.85986328 59.10522461 C27.61886405 59.16010157 25.37844192 59.24903004 23.14013672 59.37182617 C5.02920322 60.35527932 5.02920322 60.35527932 0.04638672 56.48101807 C-3.18591009 52.74752141 -5.17446043 48.59367286 -7.04467773 44.0585022 C-8.60037263 40.70633352 -10.76831436 37.93522502 -13 35 C-18.40839285 40.23938057 -23.81656539 45.72484808 -28 52 C-27.99530794 54.10231241 -27.99530794 54.10231241 -27 56 C-25.68 56.66 -24.36 57.32 -23 58 C-28.61 58 -34.22 58 -40 58 C-39.01 57.34 -38.02 56.68 -37 56 C-31.77768114 51.99704332 -27.38924386 47.35627169 -23.125 42.375 C-22.41053711 41.54971802 -22.41053711 41.54971802 -21.68164062 40.70776367 C-19.08384727 37.61286746 -16.98178095 34.93944134 -16 31 C-17.09940271 28.1801698 -17.09940271 28.1801698 -19.09375 25.4375 C-19.795 24.39335937 -20.49625 23.34921875 -21.21875 22.2734375 C-21.9715625 21.19320313 -22.724375 20.11296875 -23.5 19 C-24.221875 17.91976563 -24.94375 16.83953125 -25.6875 15.7265625 C-29.35714779 10.34175324 -32.74041392 5.86146826 -38 2 C-38 1.67 -38 1.34 -38 1 C-32.92175707 -0.12387344 -27.91442881 -1.0302579 -23 1 C-18.23640053 5.41018325 -15.13618257 11.33946939 -12.09057617 17.00708008 C-10.92155474 19.21211437 -10.92155474 19.21211437 -9 22 C-4.6868053 20.44805611 -2.42165466 17.15096284 0.25 13.625 C0.70890625 13.0475 1.1678125 12.47 1.640625 11.875 C4.184154 8.55932826 5 7.30720736 5 3 C2.525 2.505 2.525 2.505 0 2 C0 1.34 0 0.68 0 0 Z " fill="#FCFCFC" transform="translate(290,257)"/>
<path d="M0 0 C15.4507772 0 15.4507772 0 21.71484375 5.5078125 C28.60585129 12.75263705 29.51021791 21.44390367 29.4375 31.0625 C29.4674707 32.47499023 29.4674707 32.47499023 29.49804688 33.91601562 C29.49375883 40.07793044 28.61202958 44.90171034 25 50 C19.53314665 54.75378552 14.27012917 54.41246077 7.20703125 54.3359375 C4 54 4 54 0 52 C0 34.84 0 17.68 0 0 Z " fill="#FBFBFB" transform="translate(326,259)"/>
<path d="M0 0 C4.78306186 -0.09992737 9.56549757 -0.17195954 14.34936523 -0.21972656 C15.97186893 -0.23966813 17.59430242 -0.26683174 19.21655273 -0.30175781 C31.07696641 -0.5504498 42.45159899 -0.40316957 51.57983398 8.31933594 C56.36548031 13.98280324 57.64864547 19.7411463 57.5 27 C57.51546875 27.75539063 57.5309375 28.51078125 57.546875 29.2890625 C57.49399206 36.98353025 54.36253452 43.48850619 49 49 C38.49779007 57.18195425 27.12113334 57.41253167 14.375 57.1875 C12.87891979 57.1724192 11.3828248 57.15873683 9.88671875 57.14648438 C6.25750032 57.11376305 2.62884752 57.06217056 -1 57 C-0.18958252 56.5781543 0.62083496 56.15630859 1.45581055 55.72167969 C5.43874498 51.46088389 4.72726591 47.08680805 4.70703125 41.453125 C4.72215256 40.3267865 4.73727386 39.200448 4.75285339 38.03997803 C4.79583501 34.44311669 4.804579 30.8470929 4.8125 27.25 C4.83563599 24.81117549 4.86099943 22.37237101 4.88867188 19.93359375 C4.9516277 13.95572132 4.98647882 7.97817757 5 2 C3.35 1.67 1.7 1.34 0 1 C0 0.67 0 0.34 0 0 Z M16 1 C16 18.16 16 35.32 16 53 C22.21106233 56.10553116 29.59126691 56.16680038 36.33203125 54.3828125 C41.21041379 51.98082022 43.30075433 47.92275518 45 43 C45.52403254 39.33525648 45.51592138 35.75842355 45.4375 32.0625 C45.44458984 31.12470703 45.45167969 30.18691406 45.45898438 29.22070312 C45.38085298 20.57215844 43.82211318 12.92865811 37.71484375 6.5078125 C30.77748731 0.40799567 25.83694297 1 16 1 Z " fill="#565656" transform="translate(310,258)"/>
<path d="M0 0 C8 0 8 0 10.06982422 1.84838867 C10.5598291 2.6963501 11.04983398 3.54431152 11.5546875 4.41796875 C12.10640625 5.34287109 12.658125 6.26777344 13.2265625 7.22070312 C13.77054687 8.19974609 14.31453125 9.17878906 14.875 10.1875 C15.72578125 11.62706055 15.72578125 11.62706055 16.59375 13.09570312 C19.05709102 17.3131531 21.26572084 21.42692585 23 26 C23.66 26 24.32 26 25 26 C25.35771484 25.01 25.35771484 25.01 25.72265625 24 C27.35576798 20.16443484 29.37223171 16.61672185 31.4375 13 C32.03014648 11.95199219 32.03014648 11.95199219 32.63476562 10.8828125 C33.40398015 9.52612799 34.18407768 8.17554357 34.97607422 6.83203125 C36.131402 4.85261056 36.131402 4.85261056 37.22265625 2 C37.80917969 1.34 38.39570313 0.68 39 0 C41.97 0 44.94 0 48 0 C48 14.19 48 28.38 48 43 C45.03 43 42.06 43 39 43 C38.67 35.08 38.34 27.16 38 19 C34.62476318 25.23943462 34.62476318 25.23943462 31.30029297 31.50585938 C27.83353128 37.70177388 27.83353128 37.70177388 23.96484375 39.0859375 C19.42103407 37.42166992 17.98276313 34.22493568 15.6875 30.125 C15.24599609 29.37863281 14.80449219 28.63226563 14.34960938 27.86328125 C12.82692183 25.2749456 11.34310991 22.68621982 10 20 C9.67 27.59 9.34 35.18 9 43 C6.03 43 3.06 43 0 43 C0 28.81 0 14.62 0 0 Z " fill="#FF5A5A" transform="translate(442,412)"/>
<path d="M0 0 C8 0 8 0 10.46875 1.8359375 C11.47421875 3.09277344 11.47421875 3.09277344 12.5 4.375 C13.24507812 5.2825 13.99015625 6.19 14.7578125 7.125 C15.49773437 8.07375 16.23765625 9.0225 17 10 C17.73992187 10.9075 18.47984375 11.815 19.2421875 12.75 C22.24343204 16.44383943 25.14411615 20.19215486 28 24 C28.33 16.08 28.66 8.16 29 0 C32.3 0 35.6 0 39 0 C39 14.19 39 28.38 39 43 C31 43 31 43 28.63671875 41.3046875 C27.99347656 40.50289063 27.35023438 39.70109375 26.6875 38.875 C25.95015625 37.9778125 25.2128125 37.080625 24.453125 36.15625 C23.64359375 35.1146875 22.8340625 34.073125 22 33 C20.99597756 31.73863847 19.99071403 30.47826408 18.984375 29.21875 C16.28813703 25.83766383 13.64904581 22.42028699 11 19 C10.67 26.92 10.34 34.84 10 43 C6.7 43 3.4 43 0 43 C0 28.81 0 14.62 0 0 Z " fill="#FF5A5A" transform="translate(180,412)"/>
<path d="M0 0 C8 0 8 0 9.8828125 1.12646484 C10.29273438 1.64934082 10.70265625 2.1722168 11.125 2.7109375 C11.6003418 3.29214355 12.07568359 3.87334961 12.56542969 4.47216797 C13.03883789 5.10010254 13.51224609 5.72803711 14 6.375 C14.50692383 7.00680176 15.01384766 7.63860352 15.53613281 8.28955078 C17.04513555 10.17747662 18.52223265 12.08759519 20 14 C20.84558865 15.05479355 21.69428038 16.10711131 22.546875 17.15625 C24.38329195 19.42246666 26.1948265 21.70881825 28 24 C28.33 16.08 28.66 8.16 29 0 C32.3 0 35.6 0 39 0 C39 14.19 39 28.38 39 43 C30 43 30 43 27.46875 40.98046875 C26.8190625 40.05878906 26.169375 39.13710938 25.5 38.1875 C24.76652344 37.19105469 24.03304688 36.19460938 23.27734375 35.16796875 C22.52582031 34.12253906 21.77429688 33.07710938 21 32 C19.36735727 29.9892178 17.72196552 27.98870348 16.0625 26 C13.90068398 23.37684406 11.88660203 20.82990305 10 18 C9.67 26.25 9.34 34.5 9 43 C6.03 43 3.06 43 0 43 C0 28.81 0 14.62 0 0 Z " fill="#FF5959" transform="translate(326,412)"/>
<path d="M0 0 C26.4 0 52.8 0 80 0 C80.495 1.485 80.495 1.485 81 3 C81.66 3 82.32 3 83 3 C83 3.66 83 4.32 83 5 C83.99 5.33 84.98 5.66 86 6 C87.6875 7.4375 87.6875 7.4375 89 9 C89 9.66 89 10.32 89 11 C89.66 11 90.32 11 91 11 C91 11.66 91 12.32 91 13 C91.99 13.495 91.99 13.495 93 14 C82.79465018 14.30266504 72.5903856 14.53291314 62.38144398 14.67355824 C57.63947157 14.74110312 52.90059234 14.83252092 48.16040039 14.98071289 C43.57595207 15.12312086 38.99445569 15.19992199 34.40796471 15.23340416 C32.66822537 15.25722576 30.92862827 15.30374924 29.19016457 15.37449074 C14.91366695 15.93173953 14.91366695 15.93173953 8.94515991 11.05453491 C5.62341642 7.94725549 2.73670035 4.63004832 0 1 C0 0.67 0 0.34 0 0 Z " fill="#FDBC59" transform="translate(266,373)"/>
<path d="M0 0 C3.3 0 6.6 0 10 0 C15.0143396 9.64075036 19.61221796 19.43282893 24 29.375 C24.49282471 30.48673584 24.98564941 31.59847168 25.4934082 32.74389648 C25.9493335 33.78489502 26.40525879 34.82589355 26.875 35.8984375 C27.28492188 36.83349121 27.69484375 37.76854492 28.1171875 38.73193359 C29 41 29 41 29 43 C25.7 43 22.4 43 19 43 C17.68 40.36 16.36 37.72 15 35 C8.4 35 1.8 35 -5 35 C-5.99 37.64 -6.98 40.28 -8 43 C-11.63 43 -15.26 43 -19 43 C-12.8882311 28.56205318 -6.54320614 14.24752401 0 0 Z " fill="#FF5C5C" transform="translate(398,412)"/>
<path d="M0 0 C3.63 0 7.26 0 11 0 C13.40938818 5.31725733 15.81193756 10.63753127 18.20825195 15.96069336 C19.02409479 17.77045476 19.84178721 19.57938356 20.66137695 21.38745117 C21.84034802 23.98919508 23.0125953 26.59387857 24.18359375 29.19921875 C24.55028671 30.00461594 24.91697968 30.81001312 25.29478455 31.63981628 C26.98100967 35.40799059 28.44601362 38.86863752 29 43 C25.7 43 22.4 43 19 43 C16 37.375 16 37.375 16 34 C9.07 34 2.14 34 -5 34 C-5.99 36.97 -6.98 39.94 -8 43 C-11.3 43 -14.6 43 -18 43 C-17.32965861 38.00091812 -15.25271792 33.74380224 -13.18359375 29.19921875 C-12.80767593 28.36284378 -12.43175812 27.52646881 -12.04444885 26.66474915 C-10.84696728 24.00345615 -9.6423453 21.34546612 -8.4375 18.6875 C-7.62257325 16.87977073 -6.80811472 15.0718303 -5.99414062 13.26367188 C-4.00151138 8.83998264 -2.0024736 4.41924117 0 0 Z " fill="#FF5C5C" transform="translate(136,412)"/>
<path d="M0 0 C3.3 0 6.6 0 10 0 C10 5.61 10 11.22 10 17 C16.27 17 22.54 17 29 17 C29 11.39 29 5.78 29 0 C32.3 0 35.6 0 39 0 C39 14.19 39 28.38 39 43 C36.03 43 33.06 43 30 43 C30 37.06 30 31.12 30 25 C23.4 25 16.8 25 10 25 C10 30.94 10 36.88 10 43 C6.7 43 3.4 43 0 43 C0 28.81 0 14.62 0 0 Z " fill="#FF5959" transform="translate(239,412)"/>
<path d="M0 0 C3.3 0 6.6 0 10 0 C10 5.61 10 11.22 10 17 C16.27 17 22.54 17 29 17 C29 11.39 29 5.78 29 0 C32.3 0 35.6 0 39 0 C39 14.19 39 28.38 39 43 C35.7 43 32.4 43 29 43 C29 37.06 29 31.12 29 25 C22.4 25 15.8 25 9 25 C9 30.94 9 36.88 9 43 C6.03 43 3.06 43 0 43 C0 28.81 0 14.62 0 0 Z " fill="#FF5959" transform="translate(64,412)"/>
<path d="M0 0 C5.07824293 -1.12387344 10.08557119 -2.0302579 15 0 C19.76359947 4.41018325 22.86381743 10.33946939 25.90942383 16.00708008 C27.07844526 18.21211437 27.07844526 18.21211437 29 21 C33.3131947 19.44805611 35.57834534 16.15096284 38.25 12.625 C38.70890625 12.0475 39.1678125 11.47 39.640625 10.875 C42.184154 7.55932826 43 6.30720736 43 2 C42.01 1.34 41.02 0.68 40 0 C44.62 0 49.24 0 54 0 C52.35 1.32 50.7 2.64 49 4 C42.85612938 10.27227949 37.2459491 16.96486958 32 24 C38.08224264 36.10046167 46.43073232 47.43073232 56 57 C50.68183004 57.95014451 45.20160491 58.87036699 40 57 C35.79070744 53.30122512 33.49930067 48.04246594 31.09228516 43.07763672 C29.3728423 39.80708269 27.21518048 36.95228081 25 34 C19.59160715 39.23938057 14.18343461 44.72484808 10 51 C10.00469206 53.10231241 10.00469206 53.10231241 11 55 C12.32 55.66 13.64 56.32 15 57 C9.39 57 3.78 57 -2 57 C-1.01 56.34 -0.02 55.68 1 55 C6.22231886 50.99704332 10.61075614 46.35627169 14.875 41.375 C15.58946289 40.54971802 15.58946289 40.54971802 16.31835938 39.70776367 C18.91615273 36.61286746 21.01821905 33.93944134 22 30 C20.90059729 27.1801698 20.90059729 27.1801698 18.90625 24.4375 C18.205 23.39335937 17.50375 22.34921875 16.78125 21.2734375 C16.0284375 20.19320313 15.275625 19.11296875 14.5 18 C13.778125 16.91976563 13.05625 15.83953125 12.3125 14.7265625 C8.64285221 9.34175324 5.25958608 4.86146826 0 1 C0 0.67 0 0.34 0 0 Z " fill="#575757" transform="translate(252,258)"/>
<path d="M0 0 C6.6 0 13.2 0 20 0 C18.02 0.99 18.02 0.99 16 2 C15.67 19.49 15.34 36.98 15 55 C31.3699717 54.11646168 31.3699717 54.11646168 42 44.6875 C43.01063768 43.46706476 44.01464199 42.24093525 45 41 C46 45 46 45 42 58 C27.15 57.67 12.3 57.34 -3 57 C-0.525 54.525 -0.525 54.525 2 52 C2.72282639 49.51370139 2.72282639 49.51370139 2.59936523 46.87426758 C2.60544296 45.88006302 2.61152069 44.88585846 2.61778259 43.86152649 C2.59825027 42.79991806 2.57871796 41.73830963 2.55859375 40.64453125 C2.55626236 39.54654709 2.55393097 38.44856293 2.55152893 37.31730652 C2.54180093 35.00157884 2.5200359 32.68587464 2.48706055 30.37036133 C2.43753359 26.81491119 2.42557257 23.2608425 2.41992188 19.70507812 C2.40584065 17.45571436 2.38963796 15.20636265 2.37109375 12.95703125 C2.36573105 11.88935013 2.36036835 10.82166901 2.35484314 9.72163391 C2.33885574 8.73688583 2.32286835 7.75213776 2.30639648 6.73754883 C2.29575668 5.86882645 2.28511688 5.00010406 2.27415466 4.10505676 C2.18929859 1.78272159 2.18929859 1.78272159 0 0 Z " fill="#5E5E5E" transform="translate(202,258)"/>
<path d="M0 0 C6.27 0 12.54 0 19 0 C18.01 0.99 17.02 1.98 16 3 C16.19060796 8.96404365 17.84835515 13.86932258 20.125 19.33203125 C20.43195801 20.09045822 20.73891602 20.84888519 21.05517578 21.6302948 C22.0278269 24.02812768 23.01350072 26.42033577 24 28.8125 C24.98343001 31.2236837 25.96420751 33.6359346 26.94482422 36.04826355 C27.55353844 37.54277879 28.16445519 39.03639929 28.77783203 40.52900696 C29.92982926 43.33501069 31.0404347 46.12130409 32 49 C34.57645648 43.25825995 37.13841406 37.51021282 39.69042969 31.75756836 C40.56015438 29.80166064 41.43317834 27.84721649 42.30957031 25.89428711 C43.56927405 23.08566193 44.81698885 20.27197374 46.0625 17.45703125 C46.45622803 16.58601273 46.84995605 15.7149942 47.25561523 14.81758118 C47.61598877 13.997108 47.9763623 13.17663483 48.34765625 12.33129883 C48.66742432 11.61404129 48.98719238 10.89678375 49.31665039 10.15779114 C50.14121582 7.55408735 50.39645967 5.71225198 50 3 C48.68 2.01 47.36 1.02 46 0 C50.29 0 54.58 0 59 0 C58.25878906 0.81210937 57.51757812 1.62421875 56.75390625 2.4609375 C53.65711676 6.19187812 51.83959278 10.19427443 49.9375 14.625 C49.56173828 15.46949707 49.18597656 16.31399414 48.79882812 17.18408203 C46.71615289 21.90038252 44.72711706 26.64622321 42.82118225 31.4367981 C41.81244183 33.96451214 40.7834726 36.48380967 39.75393677 39.00311279 C39.01531146 40.83698445 38.3079473 42.68334855 37.60131836 44.52978516 C34.49274908 52.14258598 31.48813146 56.37449635 24 60 C23.72961914 59.30366455 23.45923828 58.6073291 23.18066406 57.88989258 C17.22302675 42.57257235 11.12850091 27.32450683 4.79785156 12.1574707 C4.31541992 11.00077881 3.83298828 9.84408691 3.3359375 8.65234375 C2.90845215 7.63132568 2.4809668 6.61030762 2.04052734 5.55834961 C1.29694178 3.73009219 0.62413498 1.87240493 0 0 Z " fill="#575757" transform="translate(138,258)"/>
<path d="M0 0 C12.54 0 25.08 0 38 0 C38 2.64 38 5.28 38 8 C33.38 8 28.76 8 24 8 C24 19.55 24 31.1 24 43 C20.7 43 17.4 43 14 43 C14 31.45 14 19.9 14 8 C9.38 8 4.76 8 0 8 C0 5.36 0 2.72 0 0 Z " fill="#FF5959" transform="translate(11,412)"/>
<path d="M0 0 C7.97812125 0.38603812 14.83283505 2.23666341 20.89453125 7.7109375 C26.24891048 13.67761801 27.36204876 18.97052239 27.375 26.8125 C27.39949219 27.58142578 27.42398438 28.35035156 27.44921875 29.14257812 C27.48875626 36.95123703 24.45057568 43.39801944 19 49 C12.65339341 53.94444932 5.49576505 56.59859241 -2.5 57.3125 C-5 57 -5 57 -7 55 C-5.91332031 54.94392578 -5.91332031 54.94392578 -4.8046875 54.88671875 C3.08017165 54.45677933 3.08017165 54.45677933 10 51 C14.26306237 45.02833675 14.5888833 39.19704847 14.4375 32.0625 C14.44458984 31.12470703 14.45167969 30.18691406 14.45898438 29.22070312 C14.39168979 21.77171008 13.31476979 14.67924221 8.6875 8.625 C5.94064012 5.94202059 3.52459363 4.47541129 0 3 C0 2.01 0 1.02 0 0 Z " fill="#5D5D5D" transform="translate(340,258)"/>
<path d="M0 0 C4.45751961 1.32074655 4.45751961 1.32074655 6.375 4 C6.73144531 6.84741211 6.73144531 6.84741211 6.703125 10.27734375 C6.69796875 11.51291016 6.6928125 12.74847656 6.6875 14.02148438 C6.666875 15.31376953 6.64625 16.60605469 6.625 17.9375 C6.61984375 19.22591797 6.6146875 20.51433594 6.609375 21.84179688 C6.52273604 32.2330567 6.52273604 32.2330567 5.375 36 C3.36887601 34.04761147 1.37007567 32.08862178 -0.625 30.125 C-1.19734375 29.56941406 -1.7696875 29.01382813 -2.359375 28.44140625 C-3.81950782 26.99865596 -5.22649298 25.5025626 -6.625 24 C-6.625 23.34 -6.625 22.68 -6.625 22 C-7.285 22 -7.945 22 -8.625 22 C-8.76048815 19.26916098 -8.85929855 16.54508193 -8.9375 13.8125 C-8.97939453 13.04357422 -9.02128906 12.27464844 -9.06445312 11.48242188 C-9.15663902 7.18655895 -9.00233789 5.50204581 -6.33203125 1.94921875 C-3.625 0 -3.625 0 0 0 Z " fill="#FBBC5A" transform="translate(106.625,188)"/>
<path d="M0 0 C0.33 0 0.66 0 1 0 C0.97699829 0.95418823 0.95399658 1.90837646 0.93029785 2.89147949 C0.72259651 11.95162401 0.6016027 21.00948673 0.56215668 30.07196808 C0.53918371 34.73007612 0.48731535 39.38386709 0.36572266 44.04052734 C-1.3003534 67.25238269 -1.3003534 67.25238269 7.82922363 87.43688965 C10.59041986 89.91439012 13.39631958 92.11334435 16.55505371 94.0604248 C17.03188599 94.37048462 17.50871826 94.68054443 18 95 C18 95.33 18 95.66 18 96 C34.335 96.495 34.335 96.495 51 97 C51 97.33 51 97.66 51 98 C44.5222714 98.10140493 38.04474739 98.17146717 31.56640625 98.21972656 C29.3625524 98.23984419 27.15875193 98.26714172 24.95507812 98.30175781 C21.78762644 98.35026833 18.62088032 98.37296736 15.453125 98.390625 C13.97480194 98.42159271 13.97480194 98.42159271 12.46661377 98.45318604 C5.62121453 98.45543244 5.62121453 98.45543244 2.40917969 96.10058594 C-0.41819417 91.88597668 -0.13434622 88.2679469 -0.11352539 83.32763672 C-0.11374443 81.9812059 -0.11374443 81.9812059 -0.1139679 80.60757446 C-0.11326953 77.63158782 -0.10548067 74.65566325 -0.09765625 71.6796875 C-0.0957918 69.61988357 -0.09436802 67.56007919 -0.09336853 65.50027466 C-0.08954548 60.07182598 -0.07971699 54.64340395 -0.06866455 49.21496582 C-0.05844588 43.67847046 -0.05386993 38.14197081 -0.04882812 32.60546875 C-0.03809455 21.73696744 -0.02102065 10.86848594 0 0 Z " fill="#FBC675" transform="translate(97,290)"/>
<path d="M0 0 C4.29 0 8.58 0 13 0 C11.89205078 1.20849609 11.89205078 1.20849609 10.76171875 2.44140625 C7.59234174 6.25691284 5.75264864 10.40404779 3.8125 14.9375 C3.43810791 15.79053711 3.06371582 16.64357422 2.67797852 17.52246094 C1.4423778 20.34421987 0.2212718 23.17201293 -1 26 C-1.93406353 28.14229017 -2.86897754 30.2842097 -3.8046875 32.42578125 C-6.21385671 37.94589728 -8.6110233 43.47111787 -11 49 C-11.66 49 -12.32 49 -13 49 C-11.264679 43.24570138 -9.09433873 37.78172038 -6.64453125 32.296875 C-6.33667694 31.60670288 -6.02882263 30.91653076 -5.7116394 30.20544434 C-4.42000611 27.3188048 -3.12308042 24.43466271 -1.81665039 21.5546875 C-0.85526539 19.43064758 0.09454494 17.30172732 1.04296875 15.171875 C1.3397905 14.52595398 1.63661224 13.88003296 1.94242859 13.21453857 C3.48780306 9.72390915 4.74134825 6.81788106 4 3 C2.68 2.01 1.36 1.02 0 0 Z " fill="#6A6A6A" transform="translate(184,258)"/>
<path d="M0 0 C2.46140365 2.46140365 3.30326986 4.78456293 4.625 8 C5.07101563 9.0725 5.51703125 10.145 5.9765625 11.25 C7 14 7 14 7 16 C2.71 16 -1.58 16 -6 16 C-4.23196827 10.52752083 -2.34565002 5.24978815 0 0 Z " fill="#FFF6F6" transform="translate(141,422)"/>
<path d="M0 0 C0.66 0 1.32 0 2 0 C3.98 4.95 5.96 9.9 8 15 C3.71 15 -0.58 15 -5 15 C-4.23239022 11.16195111 -3.40495674 8.23779856 -1.9375 4.6875 C-1.39416016 3.36298828 -1.39416016 3.36298828 -0.83984375 2.01171875 C-0.56269531 1.34785156 -0.28554688 0.68398438 0 0 Z " fill="#FFF7F7" transform="translate(402,423)"/>
<path d="M0 0 C0.66 0.99 1.32 1.98 2 3 C1.41992188 3.6290625 0.83984375 4.258125 0.2421875 4.90625 C-3.47612564 8.98044129 -7.17828659 13.06660824 -10.625 17.375 C-11.11226563 17.98085938 -11.59953125 18.58671875 -12.1015625 19.2109375 C-13.17347739 20.98009908 -13.17347739 20.98009908 -12.8984375 23.1015625 C-11.99425571 25.51717225 -11.99425571 25.51717225 -8 27 C-13.61 27 -19.22 27 -25 27 C-24.01 26.34 -23.02 25.68 -22 25 C-16.78114029 20.99969479 -12.42514799 16.37128277 -8.1875 11.375 C-7.71957031 10.82481201 -7.25164062 10.27462402 -6.76953125 9.70776367 C-4.19601735 6.61963997 -1.96278531 3.5082342 0 0 Z " fill="#5E5E5E" transform="translate(275,288)"/>
<path d="M0 0 C4.62 0 9.24 0 14 0 C12.35 1.32 10.7 2.64 9 4 C2.85612938 10.27227949 -2.7540509 16.96486958 -8 24 C-8.99 23.34 -9.98 22.68 -11 22 C-10.27425781 21.46375 -9.54851562 20.9275 -8.80078125 20.375 C-5.7827982 17.81581772 -3.56722912 15.15718623 -1.1875 12 C-0.39730469 10.96875 0.39289063 9.9375 1.20703125 8.875 C3.35277977 5.99903402 3.35277977 5.99903402 3 2 C2.01 1.34 1.02 0.68 0 0 Z " fill="#5D5D5D" transform="translate(292,258)"/>
<path d="M0 0 C3.13899805 -0.52316634 5.8725161 -0.6505552 9 0 C12.12516348 2.2938392 14.62636522 4.94079223 17 8 C17 8.33 17 8.66 17 9 C12.54463621 9.64805291 10.24637093 9.85844038 6.46484375 7.25390625 C4.20481947 5.24459782 2.03945467 3.23301402 0 1 C0 0.67 0 0.34 0 0 Z " fill="#FF6161" transform="translate(130,400)"/>
<path d="M0 0 C0.66 0.99 1.32 1.98 2 3 C1.41992188 3.6290625 0.83984375 4.258125 0.2421875 4.90625 C-4.47701509 10.07712544 -8.93754411 15.29663055 -13 21 C-13.66 20.34 -14.32 19.68 -15 19 C-14.16855469 18.04738281 -13.33710938 17.09476562 -12.48046875 16.11328125 C-11.3826142 14.846526 -10.28496897 13.57958932 -9.1875 12.3125 C-8.64029297 11.68666016 -8.09308594 11.06082031 -7.52929688 10.41601562 C-4.65979759 7.09435282 -2.1119187 3.87555607 0 0 Z " fill="#6D6D6D" transform="translate(275,288)"/>
<path d="M0 0 C4.29 0 8.58 0 13 0 C11.73046875 1.49739583 10.4609375 2.99479167 9.19140625 4.4921875 C7.9121848 6.00594079 7.9121848 6.00594079 7 8 C6.34 8 5.68 8 5 8 C4.731875 7.05125 4.46375 6.1025 4.1875 5.125 C3.25013412 1.74732727 3.25013412 1.74732727 0 0 Z " fill="#5E5E5E" transform="translate(184,258)"/>
<path d="M0 0 C-1.46966358 3.39859703 -3.38037514 5.64963709 -6 8.25 C-6.70125 8.95640625 -7.4025 9.6628125 -8.125 10.390625 C-10 12 -10 12 -12 12 C-10.53033642 8.60140297 -8.61962486 6.35036291 -6 3.75 C-5.29875 3.04359375 -4.5975 2.3371875 -3.875 1.609375 C-2 0 -2 0 0 0 Z " fill="#EAAE53" transform="translate(270,23)"/>
<path d="M0 0 C0.99 0.33 1.98 0.66 3 1 C1.75160427 2.41808059 0.50120779 3.83439995 -0.75 5.25 C-1.44609375 6.03890625 -2.1421875 6.8278125 -2.859375 7.640625 C-4.84586916 9.83011856 -6.89101308 11.92901285 -9 14 C-9.66 13.34 -10.32 12.68 -11 12 C-10.29875 11.505 -9.5975 11.01 -8.875 10.5 C-5.29763247 7.38924563 -2.72367352 3.85619756 0 0 Z " fill="#727272" transform="translate(292,268)"/>
<path d="M0 0 C0.33 0 0.66 0 1 0 C0.49202991 4.3177458 -0.19682779 8.03302114 -2 12 C-2.66 11.67 -3.32 11.34 -4 11 C-3.52269162 9.5410574 -3.04308958 8.08286504 -2.5625 6.625 C-2.29566406 5.81289063 -2.02882812 5.00078125 -1.75390625 4.1640625 C-1 2 -1 2 0 0 Z " fill="#777777" transform="translate(183,277)"/>
</svg>
